HIERARCHY
ROOT joint_Root
{
	OFFSET 0.0 0.0 0.0
	CHANNELS 6 Xposition Yposition Zposition Zrotation Xrotation Yrotation 
	JOINT Hips
	{
		OFFSET -0.726466 93.3139 -2.00062
		CHANNELS 6 Xposition Yposition Zposition Zrotation Xrotation Yrotation 
		JOINT Spine
		{
			OFFSET 15.7357 0.0 0.0
			CHANNELS 6 Xposition Yposition Zposition Zrotation Xrotation Yrotation 
			JOINT Chest
			{
				OFFSET 8.98455 -0.406207 0.0
				CHANNELS 6 Xposition Yposition Zposition Zrotation Xrotation Yrotation 
				JOINT Neck
				{
					OFFSET 16.3773 0.0 0.0
					CHANNELS 6 Xposition Yposition Zposition Zrotation Xrotation Yrotation 
					JOINT Head
					{
						OFFSET 6.45672 0.0 0.0
						CHANNELS 6 Xposition Yposition Zposition Zrotation Xrotation Yrotation 
						End Site
						{
							OFFSET 0.0 0.0 0.0
						}
					}
				}
				JOINT Shoulder_L
				{
					OFFSET 12.9942 -0.242716 4.98039
					CHANNELS 6 Xposition Yposition Zposition Zrotation Xrotation Yrotation 
					JOINT UpperArm_L
					{
						OFFSET 5.34809 0.0 0.0
						CHANNELS 6 Xposition Yposition Zposition Zrotation Xrotation Yrotation 
						JOINT LowerArm_L
						{
							OFFSET 24.3286 1.87007e-05 0.0
							CHANNELS 6 Xposition Yposition Zposition Zrotation Xrotation Yrotation 
							JOINT Hand_L
							{
								OFFSET 22.2916 0.0 0.0
								CHANNELS 6 Xposition Yposition Zposition Zrotation Xrotation Yrotation 
								End Site
								{
									OFFSET 0.0 0.0 0.0
								}
							}
						}
					}
				}
				JOINT Shoulder_R
				{
					OFFSET 12.9945 -0.242716 -4.98039
					CHANNELS 6 Xposition Yposition Zposition Zrotation Xrotation Yrotation 
					JOINT UpperArm_R
					{
						OFFSET -5.34813 0.0 0.0
						CHANNELS 6 Xposition Yposition Zposition Zrotation Xrotation Yrotation 
						JOINT LowerArm_R
						{
							OFFSET -24.3289 0.000322201 0.0
							CHANNELS 6 Xposition Yposition Zposition Zrotation Xrotation Yrotation 
							JOINT Hand_R
							{
								OFFSET -22.2915 -0.000108084 0.0
								CHANNELS 6 Xposition Yposition Zposition Zrotation Xrotation Yrotation 
								End Site
								{
									OFFSET 0.0 0.0 0.0
								}
							}
						}
					}
				}
			}
		}
		JOINT UpperLeg_L
		{
			OFFSET -2.19248 -6.46944 0.0
			CHANNELS 6 Xposition Yposition Zposition Zrotation Xrotation Yrotation 
			JOINT LowerLeg_L
			{
				OFFSET 39.0811 0.0 -1.23785e-05
				CHANNELS 6 Xposition Yposition Zposition Zrotation Xrotation Yrotation 
				JOINT Foot_L
				{
					OFFSET 40.9854 0.0 -1.26872e-05
					CHANNELS 6 Xposition Yposition Zposition Zrotation Xrotation Yrotation 
					JOINT Toes_L
					{
						OFFSET 11.7543 0.0 0.0
						CHANNELS 6 Xposition Yposition Zposition Zrotation Xrotation Yrotation 
						End Site
						{
							OFFSET 0.0 0.0 0.0
						}
					}
				}
			}
		}
		JOINT UpperLeg_R
		{
			OFFSET -2.19251 6.46944 0.0
			CHANNELS 6 Xposition Yposition Zposition Zrotation Xrotation Yrotation 
			JOINT LowerLeg_R
			{
				OFFSET -39.0811 -0.00228153 -0.0401928
				CHANNELS 6 Xposition Yposition Zposition Zrotation Xrotation Yrotation 
				JOINT Foot_R
				{
					OFFSET -40.9854 0.0 0.0
					CHANNELS 6 Xposition Yposition Zposition Zrotation Xrotation Yrotation 
					JOINT Toes_R
					{
						OFFSET -11.7543 0.0 0.0
						CHANNELS 6 Xposition Yposition Zposition Zrotation Xrotation Yrotation 
						End Site
						{
							OFFSET 0.0 0.0 0.0
						}
					}
				}
			}
		}
	}
}
MOTION
Frames:	7
Frame Time:	0.0333333
0.000000 0.000000 0.000000 0.000000 0.000000 -0.000000 20.112700 94.393000 -399.247000 84.110600 0.797337 -16.123800 15.735700 0.000005 -0.000001 60.626200 81.349200 -58.055200 8.984550 -0.406207 -0.000000 7.569650 -8.458810 5.704550 16.377300 -0.000001 -0.000001 -1.494760 -0.291567 1.236900 6.456720 -0.000001 -0.000000 0.049232 6.676750 -2.634170 12.994200 -0.242716 4.980390 -88.037700 -6.437730 -73.008200 5.348090 -0.000007 -0.000001 -70.713600 20.757800 -28.663300 24.328600 0.000019 0.000005 -8.995530 3.234920 -109.617000 22.291600 -0.000001 0.000005 9.175470 5.664540 -16.609000 12.994500 -0.242716 -4.980390 89.960000 0.104214 -68.972600 -5.348130 -0.000001 -0.000004 -75.065800 21.450300 37.222900 -24.328900 0.000322 -0.000009 -2.360050 -1.513360 -57.310400 -22.291500 -0.000108 -0.000004 11.868900 5.574000 -9.894040 -2.192480 -6.469440 -0.000000 -164.317000 -0.070784 4.840530 39.081100 -0.000007 -0.000012 0.058363 -0.131752 23.892200 40.985400 -0.000006 -0.000013 -3.959150 -5.806880 -31.995400 11.754300 -0.000000 0.000003 -0.008288 -0.090378 -20.257400 -2.192510 6.469440 -0.000001 -168.702000 5.326070 132.244000 -39.081100 -0.002282 -0.040193 0.092572 -0.075011 49.977900 -40.985400 0.000008 0.000006 4.730640 -5.354680 -60.195600 -11.754300 -0.000006 -0.000006 -0.023245 -0.184643 -24.123600
0.000000 0.000000 0.000000 0.000000 0.000000 -0.000000 19.633300 93.941800 -391.267000 85.336700 -0.612375 -15.309900 15.735700 0.000005 -0.000001 63.533100 81.375000 -61.147300 8.984550 -0.406207 -0.000000 7.893800 -7.653960 5.301200 16.377300 -0.000001 -0.000001 -1.695860 -0.160808 0.741985 6.456720 -0.000001 -0.000000 -0.558641 6.380190 -3.232640 12.994200 -0.242716 4.980390 -88.112800 -6.138360 -72.872900 5.348090 -0.000007 -0.000001 -71.828300 24.982300 -20.972200 24.328600 0.000019 0.000005 -8.775460 2.149230 -103.656000 22.291600 -0.000001 0.000005 10.606400 5.665740 -16.743500 12.994500 -0.242716 -4.980390 89.442800 1.479440 -69.354100 -5.348130 -0.000001 -0.000004 -75.123300 22.279600 34.317000 -24.328900 0.000322 -0.000009 -4.295830 -2.391520 -60.934300 -22.291500 -0.000108 -0.000004 12.601100 5.576510 -10.024700 -2.192480 -6.469440 -0.000000 -169.273000 4.228740 2.865960 39.081100 -0.000007 -0.000012 0.036640 -0.044335 39.570200 40.985400 -0.000006 -0.000013 -2.555960 -4.489300 -33.737800 11.754300 -0.000000 0.000003 -0.009414 -0.099215 -20.618500 -2.192510 6.469440 -0.000001 -169.367000 8.944960 138.232000 -39.081100 -0.002282 -0.040193 0.025599 -0.027171 39.399800 -40.985400 0.000008 0.000006 0.945133 -1.115690 -59.538700 -11.754300 -0.000006 -0.000006 -0.023132 -0.184058 -24.099400
0.000000 0.000000 0.000000 0.000000 0.000000 -0.000000 19.098500 91.777800 -383.066000 84.937000 -2.999560 -13.306000 15.735700 0.000005 -0.000001 71.020800 81.257000 -68.474700 8.984550 -0.406207 -0.000000 8.932390 -5.631980 5.531280 16.377300 -0.000001 -0.000001 -1.327340 0.304064 0.444522 6.456720 -0.000001 -0.000000 -1.074600 5.626420 -4.032530 12.994200 -0.242716 4.980390 -88.245600 -5.358570 -71.840100 5.348090 -0.000007 -0.000001 -73.649400 28.960600 -12.897000 24.328600 0.000019 0.000005 -9.569310 0.340206 -92.023500 22.291600 -0.000001 0.000005 12.057600 5.665930 -16.778300 12.994500 -0.242716 -4.980390 88.856400 3.179210 -70.200500 -5.348130 -0.000001 -0.000004 -73.461800 23.508500 27.452700 -24.328900 0.000322 -0.000009 -4.410530 -2.183800 -63.706300 -22.291500 -0.000108 -0.000004 13.591100 5.589210 -10.709100 -2.192480 -6.469440 -0.000000 -172.058000 3.505610 -1.740380 39.081100 -0.000007 -0.000012 0.050095 -0.026874 61.783900 40.985400 -0.000006 -0.000013 -8.164720 -3.058310 -29.679700 11.754300 -0.000000 0.000003 -0.009496 -0.099839 -20.644000 -2.192510 6.469440 -0.000001 -168.248000 12.785500 142.793000 -39.081100 -0.002282 -0.040193 -0.011929 0.017360 41.212100 -40.985400 0.000008 0.000006 -0.638943 -1.637250 -59.063700 -11.754300 -0.000006 -0.000006 -0.023552 -0.186223 -24.188800
0.000000 0.000000 0.000000 0.000000 0.000000 -0.000000 18.479000 88.126600 -375.304000 83.988800 -5.857650 -11.472500 15.735700 0.000005 -0.000001 80.181600 81.385700 -77.345700 8.984550 -0.406207 -0.000000 9.297070 -2.883780 5.902700 16.377300 -0.000001 -0.000001 -0.574607 0.861803 0.010705 6.456720 -0.000001 -0.000000 -0.844507 4.571420 -4.591970 12.994200 -0.242716 4.980390 -88.422100 -4.427780 -70.360700 5.348090 -0.000007 -0.000001 -76.063100 31.629900 -4.357160 24.328600 0.000019 0.000005 -8.596380 -2.246700 -75.440400 22.291600 -0.000001 0.000005 9.385430 5.652930 -15.229400 12.994500 -0.242716 -4.980390 88.143600 5.232310 -70.434800 -5.348130 -0.000001 -0.000004 -68.865300 25.779200 17.188600 -24.328900 0.000322 -0.000009 -4.140810 -1.725450 -67.409200 -22.291500 -0.000108 -0.000004 15.012900 5.606790 -11.747500 -2.192480 -6.469440 -0.000000 -172.918000 -0.406481 -9.259420 39.081100 -0.000007 -0.000012 0.145357 -0.011067 85.642700 40.985400 -0.000006 -0.000013 -11.673300 -4.076930 -19.422000 11.754300 -0.000000 0.000003 -0.009861 -0.102609 -20.757300 -2.192510 6.469440 -0.000001 -168.860000 12.026000 149.779000 -39.081100 -0.002282 -0.040193 0.084670 -0.079265 45.764000 -40.985400 0.000008 0.000006 8.741320 0.242862 -69.983100 -11.754300 -0.000006 -0.000006 -0.023938 -0.188201 -24.270500
0.000000 0.000000 0.000000 0.000000 0.000000 -0.000000 17.519100 84.261200 -368.399000 83.079100 -8.013060 -11.605900 15.735700 0.000005 -0.000001 89.806600 81.985800 -86.626200 8.984550 -0.406207 -0.000000 8.271270 -0.039637 6.357400 16.377300 -0.000001 -0.000001 -0.587761 0.934625 -0.194209 6.456720 -0.000001 -0.000000 -0.221438 3.696370 -5.521760 12.994200 -0.242716 4.980390 -88.869800 -3.020500 -69.471500 5.348090 -0.000007 -0.000001 -76.806700 32.996100 3.453490 24.328600 0.000019 0.000005 -4.241420 -2.923510 -55.324000 22.291600 -0.000001 0.000005 4.783170 5.626110 -13.005000 12.994500 -0.242716 -4.980390 87.126000 7.959490 -70.071300 -5.348130 -0.000001 -0.000004 -61.157800 27.193600 3.018530 -24.328900 0.000322 -0.000009 -5.657330 -1.789810 -72.490300 -22.291500 -0.000108 -0.000004 17.408000 5.612690 -12.103000 -2.192480 -6.469440 -0.000000 -173.390000 -3.913860 -21.406300 39.081100 -0.000007 -0.000012 0.098342 0.032713 108.391000 40.985400 -0.000006 -0.000013 -9.578150 -4.070190 -13.123300 11.754300 -0.000000 0.000003 -0.010456 -0.107022 -20.937800 -2.192510 6.469440 -0.000001 -169.760000 6.622700 154.191000 -39.081100 -0.002282 -0.040193 0.122317 -0.096596 50.949900 -40.985400 0.000008 0.000006 6.428670 -3.066480 -85.288500 -11.754300 -0.000006 -0.000006 -0.006586 -0.076068 -19.669400
0.000000 0.000000 0.000000 0.000000 0.000000 -0.000000 16.679300 81.604900 -362.055000 80.750600 -11.976900 -12.046800 15.735700 0.000005 -0.000001 102.096000 81.751400 -98.489000 8.984550 -0.406207 -0.000000 8.277130 3.457470 6.958160 16.377300 -0.000001 -0.000001 -1.713120 1.842440 0.184017 6.456720 -0.000001 -0.000000 -0.474919 3.964000 -7.202540 12.994200 -0.242716 4.980390 -89.365700 -1.620280 -68.616000 5.348090 -0.000007 -0.000001 -76.783800 30.402500 10.974100 24.328600 0.000019 0.000005 3.767150 5.230440 -36.075900 22.291600 -0.000001 0.000005 2.204570 5.617980 -12.455300 12.994500 -0.242716 -4.980390 86.779700 9.768870 -71.653800 -5.348130 -0.000001 -0.000004 -54.024100 25.085200 -15.117000 -24.328900 0.000322 -0.000009 -6.001780 -1.217830 -78.573400 -22.291500 -0.000108 -0.000004 21.283000 5.629980 -13.315600 -2.192480 -6.469440 -0.000000 -173.702000 -7.902200 -36.325700 39.081100 -0.000007 -0.000012 -0.123499 -0.088773 125.716000 40.985400 -0.000006 -0.000013 -6.667030 -2.588720 -8.246210 11.754300 -0.000000 0.000003 -0.009636 -0.100909 -20.687800 -2.192510 6.469440 -0.000001 -169.154000 4.655950 158.387000 -39.081100 -0.002282 -0.040193 0.157321 -0.111277 54.165000 -40.985400 0.000008 0.000006 6.868350 -2.129000 -91.973700 -11.754300 -0.000006 -0.000006 -0.007696 -0.085533 -20.055800
0.000000 0.000000 0.000000 0.000000 0.000000 -0.000000 16.257500 80.655500 -354.615000 81.765200 -16.517500 -12.427100 15.735700 0.000005 -0.000001 111.767000 81.434200 -109.068000 8.984550 -0.406207 -0.000000 8.036850 6.331500 4.951110 16.377300 -0.000001 -0.000001 -2.385970 2.560280 0.962140 6.456720 -0.000001 -0.000000 -1.074750 3.962110 -7.937480 12.994200 -0.242716 4.980390 -89.128900 -2.159460 -68.027500 5.348090 -0.000007 -0.000001 -76.638500 27.263000 20.193200 24.328600 0.000019 0.000005 10.814200 18.662000 -30.834000 22.291600 -0.000001 0.000005 -2.486060 5.610830 -12.077800 12.994500 -0.242716 -4.980390 87.458400 9.038790 -74.225800 -5.348130 -0.000001 -0.000004 -52.753100 20.036500 -30.847000 -24.328900 0.000322 -0.000009 -3.734060 -0.244189 -86.331500 -22.291500 -0.000108 -0.000004 21.076700 5.645210 -14.590700 -2.192480 -6.469440 -0.000000 -178.825000 -9.974670 -50.408700 39.081100 -0.000007 -0.000012 -0.509940 -0.481274 133.343000 40.985400 -0.000006 -0.000013 -4.549260 1.204170 -9.510480 11.754300 -0.000000 0.000003 -0.008786 -0.094340 -20.419200 -2.192510 6.469440 -0.000001 -173.924000 6.369280 164.686000 -39.081100 -0.002282 -0.040193 0.075426 -0.056030 52.182600 -40.985400 0.000008 0.000006 8.100000 3.943850 -94.299400 -11.754300 -0.000006 -0.000006 -0.014209 -0.132774 -21.989100
